{"title":"Sea.Monsters.A.Prehistoric.Adventure.2007.720p.BRRip.Xvid.AC3.Di","uid":6907893,"size":1337226708,"categoryP":"video","categoryS":"hd___movies","magnet":"?xt=urn:btih:1deaa8c2b15d4e77ba38b512fe61b86aa1f00ffe&amp;dn=Sea.Monsters.A.Prehistoric.Adventure.2007.720p.BRRip.Xvid.AC3.Di&amp;tr=udp%3A%2F%2Ftracker.openbittorrent.com%3A80&amp;tr=udp%3A%2F%2Fopen.demonii.com%3A1337&amp;tr=udp%3A%2F%2Ftracker.coppersurfer.tk%3A6969&amp;tr=udp%3A%2F%2Fexodus.desync.com%3A6969","seeders":0,"leechers":1,"uploader":"TvTeam","files":4,"time":1324666907,"description":". \n &lt;a href=&quot;\nhttp://www.torrenting.com&quot; rel=&quot;nofollow&quot; target=&quot;_NEW&quot;&gt;\nhttp://www.torrenting.com&lt;/a&gt;          :     Once &amp; For all ;)\n\n\n               www . Torrenting . Com \n\n(((((((((((((= Enjoy No RAR releases =))))))))))))))))))))\n\n\n...................................NFO:....................................\n\n.                                                                \n @@@@@@@   @@@  @@@  @@@  @@@@@@@@  @@@@@@@   @@@@@@    @@@  @@@@@@@  @@@ @@@ \n @@@@@@@@  @@@  @@@  @@@  @@@@@@@@  @@@@@@@@  @@@@@@@   @@@  @@@@@@@  @@@ @@@ \n @@!  @@@  @@!  @@!  @@@  @@!       @@!  @@@  !@@       @@!    @@!    @@! !@@ \n !@!  @!@  !@!  !@!  @!@  !@!       !@!  @!@  !@!       !@!    !@!    !@! @!! \n @!@  !@!  !!@  @!@  !@!  @!!!:!    @!@!!@!   !!@@!!    !!@    @!!     !@!@!  \n !@!  !!!  !!!  !@!  !!!  !!!!!:    !!@!@!     !!@!!!   !!!    !!!      @!!!  \n !!:  !!!  !!:  :!:  !!:  !!:       !!: :!!        !:!  !!:    !!:      !!:   \n :!:  !:!  :!:   ::!!:!   :!:       :!:  !:!      !:!   :!:    :!:      :!:   \n :::: ::   ::    ::::     :: ::::   ::   :::  :::: ::    ::     ::       ::   \n :: :  :   :       :      : :: ::    :   : :  :: : :    :       :        :       \n\n\n   \nGeneral\n\nComplete name                    : Sea.Monsters.A.Prehistoric.Adventure.2007.720p.BRRip.Xvid.AC3.DiVERSiTY\nFormat                           : AVI\nFormat/Info                      : Audio Video Interleave\nFile size                        : 1.25 GiB\nDuration                         : 39mn 34s\nOverall bit rate                 : 4 505 Kbps\nVideo-Source                     : 720p.BluRay.x264-ESiR  \nEncoded by                       : Hibees\n      &lt;a href=&quot;\nhttp://www.imdb.com/title/tt1027743/&quot; rel=&quot;nofollow&quot; target=&quot;_NEW&quot;&gt;\nhttp://www.imdb.com/title/tt1027743/&lt;/a&gt;\n\n\nVideo\n\nFormat                           : MPEG-4 Visual\nFormat profile                   : Streaming Video@L1\nFormat settings, BVOP            : Yes\nFormat settings, QPel            : No\nFormat settings, GMC             : No warppoints\nFormat settings, Matrix          : Default\nCodec ID                         : XVID\nCodec ID/Hint                    : XviD\nDuration                         : 39mn 34s\nBit rate                         : 4 050 Kbps\nWidth                            : 1 280 pixels\nHeight                           : 720 pixels\nDisplay aspect ratio             : 16/9\nFrame rate                       : 23.976 fps\nResolution                       : 24 bits\nColorimetry                      : 4:2:0\nScan type                        : Progressive\nBits/(Pixel*Frame)               : 0.183\nStream size                      : 1.12 GiB (90%)\nWriting library                  : XviD 1.2.1 (UTC 2008-12-04)\n\n\n\n\nAudio\n\nFormat                           : AC-3\nFormat/Info                      : Audio Coding 3\nCodec ID                         : 2000\nDuration                         : 39mn 34s\nBit rate mode                    : Constant\nBit rate                         : 448 Kbps\nChannel(s)                       : 6 channels\nChannel positions                : Front: L C R, Surround: L R, LFE\nSampling rate                    : 48.0 KHz\nStream size                      : 127 MiB (10%)\nAlignment                        : Aligned on interleaves\nInterleave, duration             : 64 ms (1.53 video frames)\nInterleave, preload duration     : 192 ms\nTitle                            : Sea.Monsters.A.Prehistoric.Adventure.2007.720p.BluRay.x264-ESiR\n\n \n   \nPlot:\n\nBrings to life some of the most bizarre, ferocious and fascinating \ncreatures to ever inhabit the ocean. Combines animation with recreations \nin a prehistoric adventure. A journey to the bottom of the ancient \noceans dramatizes awe-inspiring creatures.\n\n\n\nGreets:\n\nTo Everyone who makes p2p possible...... Thanks.","torrent":{"xt":"urn:btih:1deaa8c2b15d4e77ba38b512fe61b86aa1f00ffe","amp;dn":"Sea.Monsters.A.Prehistoric.Adventure.2007.720p.BRRip.Xvid.AC3.Di","amp;tr":["udp%3A%2F%2Ftracker.openbittorrent.com%3A80","udp%3A%2F%2Fopen.demonii.com%3A1337","udp%3A%2F%2Ftracker.coppersurfer.tk%3A6969","udp%3A%2F%2Fexodus.desync.com%3A6969"],"infoHash":"1deaa8c2b15d4e77ba38b512fe61b86aa1f00ffe","infoHashBuffer":{"type":"Buffer","data":[29,234,168,194,177,93,78,119,186,56,181,18,254,97,184,106,161,240,15,254]},"announce":[],"urlList":[]}}